<?xml version="1.0" encoding="UTF-8" standalone="no"?>
<!DOCTYPE svg PUBLIC "-//W3C//DTD SVG 1.1//EN"
 "http://www.w3.org/Graphics/SVG/1.1/DTD/svg11.dtd">
<!-- Generated by graphviz version 2.40.1 (20161225.0304)
 -->
<!-- Title: G Pages: 1 -->
<svg width="285pt" height="152pt"
 viewBox="0.00 0.00 285.15 152.00" xmlns="http://www.w3.org/2000/svg" xmlns:xlink="http://www.w3.org/1999/xlink">
<g id="graph0" class="graph" transform="scale(1 1) rotate(0) translate(4 148)">
<title>G</title>
<polygon fill="#ffffff" stroke="transparent" points="-4,4 -4,-148 281.1515,-148 281.1515,4 -4,4"/>
<!-- Interval -->
<g id="node1" class="node">
<title>Interval</title>
<ellipse fill="none" stroke="#000000" cx="37.1165" cy="-72" rx="37.2334" ry="18"/>
<text text-anchor="middle" x="37.1165" y="-67.8" font-family="Times,serif" font-size="14.00" fill="#000000">interval</text>
</g>
<!-- Result1 -->
<g id="node2" class="node">
<title>Result1</title>
<ellipse fill="none" stroke="#000000" cx="213.9061" cy="-126" rx="63.4916" ry="18"/>
<text text-anchor="middle" x="213.9061" y="-121.8" font-family="Times,serif" font-size="14.00" fill="#000000">MAP &lt;0 * 10&gt;</text>
</g>
<!-- Interval&#45;&gt;Result1 -->
<g id="edge1" class="edge">
<title>Interval&#45;&gt;Result1</title>
<path fill="none" stroke="#000000" d="M67.9676,-82.2438C75.8641,-84.8194 84.3515,-87.5476 92.2331,-90 114.2048,-96.8368 138.5038,-104.088 159.5726,-110.2772"/>
<polygon fill="#000000" stroke="#000000" points="158.7369,-113.6794 169.3176,-113.1319 160.7049,-106.9617 158.7369,-113.6794"/>
<text text-anchor="middle" x="112.4469" y="-104.8" font-family="Times,serif" font-size="14.00" fill="#000000">next(0)</text>
</g>
<!-- Result2 -->
<g id="node3" class="node">
<title>Result2</title>
<ellipse fill="none" stroke="#000000" cx="213.9061" cy="-72" rx="63.4916" ry="18"/>
<text text-anchor="middle" x="213.9061" y="-67.8" font-family="Times,serif" font-size="14.00" fill="#000000">MAP &lt;1 * 10&gt;</text>
</g>
<!-- Interval&#45;&gt;Result2 -->
<g id="edge2" class="edge">
<title>Interval&#45;&gt;Result2</title>
<path fill="none" stroke="#000000" d="M74.6091,-72C93.6825,-72 117.5523,-72 140.1164,-72"/>
<polygon fill="#000000" stroke="#000000" points="140.3698,-75.5001 150.3698,-72 140.3698,-68.5001 140.3698,-75.5001"/>
<text text-anchor="middle" x="112.4469" y="-74.8" font-family="Times,serif" font-size="14.00" fill="#000000">next(1)</text>
</g>
<!-- Result3 -->
<g id="node4" class="node">
<title>Result3</title>
<ellipse fill="none" stroke="#000000" cx="213.9061" cy="-18" rx="63.4916" ry="18"/>
<text text-anchor="middle" x="213.9061" y="-13.8" font-family="Times,serif" font-size="14.00" fill="#000000">MAP &lt;2 * 10&gt;</text>
</g>
<!-- Interval&#45;&gt;Result3 -->
<g id="edge3" class="edge">
<title>Interval&#45;&gt;Result3</title>
<path fill="none" stroke="#000000" d="M67.9676,-61.7562C75.8641,-59.1806 84.3515,-56.4524 92.2331,-54 114.2048,-47.1632 138.5038,-39.912 159.5726,-33.7228"/>
<polygon fill="#000000" stroke="#000000" points="160.7049,-37.0383 169.3176,-30.8681 158.7369,-30.3206 160.7049,-37.0383"/>
<text text-anchor="middle" x="112.4469" y="-56.8" font-family="Times,serif" font-size="14.00" fill="#000000">next(2)</text>
</g>
</g>
</svg>
